<svg width="10" height="9" viewBox="0 0 10 9" fill="none" xmlns="http://www.w3.org/2000/svg">
<path d="M9.34191 2.999L6.43909 0.210923C6.36936 0.144089 6.2864 0.0910406 6.19499 0.0548394C6.10359 0.0186381 6.00555 0 5.90653 0C5.80751 0 5.70947 0.0186381 5.61807 0.0548394C5.52666 0.0910406 5.4437 0.144089 5.37397 0.210923C5.23427 0.344524 5.15585 0.525252 5.15585 0.713633C5.15585 0.902014 5.23427 1.08274 5.37397 1.21634L8.04426 3.77624H0.750082C0.551148 3.77624 0.360362 3.85137 0.219694 3.98509C0.0790264 4.11882 0 4.30019 0 4.4893C0 4.67842 0.0790264 4.85979 0.219694 4.99352C0.360362 5.12724 0.551148 5.20237 0.750082 5.20237H8.08927L5.37397 7.77653C5.30367 7.84282 5.24787 7.92168 5.20978 8.00857C5.1717 8.09547 5.1521 8.18867 5.1521 8.2828C5.1521 8.37693 5.1717 8.47014 5.20978 8.55703C5.24787 8.64392 5.30367 8.72279 5.37397 8.78908C5.4437 8.85591 5.52666 8.90896 5.61807 8.94516C5.70947 8.98136 5.80751 9 5.90653 9C6.00555 9 6.10359 8.98136 6.19499 8.94516C6.2864 8.90896 6.36936 8.85591 6.43909 8.78908L9.34191 6.02239C9.76331 5.62129 10 5.07758 10 4.5107C10 3.94381 9.76331 3.4001 9.34191 2.999Z" fill="white"/>
</svg>
